<?xml version="1.0" encoding="UTF-8"?>
<svg viewBox="0 0 720 720" xmlns="http://www.w3.org/2000/svg" role="img" aria-labelledby="01-system-title 01-system-desc"><title id="01-system-title">말틈 전체 구성</title><desc id="01-system-desc">상담원 브라우저가 서버의 화면·게이트웨이·내장 엔진·저장소와 연결되고, 음성 인식과 언어 모델은 설정에 따라 외부 추론으로 붙는 구성</desc><defs><marker id="arrow" markerWidth="8" markerHeight="6" refX="7" refY="3" orient="auto"><polygon points="0 0, 8 3, 0 6" fill="#4f5d75"/></marker><marker id="arrow-accent" markerWidth="8" markerHeight="6" refX="7" refY="3" orient="auto"><polygon points="0 0, 8 3, 0 6" fill="#eb6c36"/></marker><marker id="arrow-link" markerWidth="8" markerHeight="6" refX="7" refY="3" orient="auto"><polygon points="0 0, 8 3, 0 6" fill="#2e5aa8"/></marker></defs><rect width="100%" height="100%" fill="#f5f5f5"/><g transform="translate(0,0)"><rect x="32" y="176" width="428" height="376" rx="8" fill="rgba(45,49,66,0.02)" stroke="rgba(45,49,66,0.10)" stroke-width="0.8"/><rect x="44" y="180" width="80" height="12" rx="2" fill="#f5f5f5"/><text x="84" y="189" fill="rgba(45,49,66,0.45)" font-size="7" font-family="'Geist Mono', 'Malgun Gothic', ui-monospace, monospace" text-anchor="middle" letter-spacing="0.14em">서버 · 한 배포 단위</text><rect x="488" y="304" width="200" height="248" rx="8" fill="rgba(45,49,66,0.02)" stroke="rgba(45,49,66,0.10)" stroke-width="0.8"/><rect x="500" y="308" width="84" height="12" rx="2" fill="#f5f5f5"/><text x="542" y="317" fill="rgba(45,49,66,0.45)" font-size="7" font-family="'Geist Mono', 'Malgun Gothic', ui-monospace, monospace" text-anchor="middle" letter-spacing="0.14em">외부 추론 · 설정 의존</text><path d="M 360,136 L 360,200" fill="none" stroke="#2e5aa8" stroke-width="1.2" marker-end="url(#arrow-link)"/><path d="M 360,264 L 360,328" fill="none" stroke="#4f5d75" stroke-width="1.2" marker-end="url(#arrow)"/><path d="M 276,344 L 220,344" fill="none" stroke="#4f5d75" stroke-width="1.2" marker-end="url(#arrow)"/><path d="M 216,372 L 272,372" fill="none" stroke="#4f5d75" stroke-width="1" stroke-dasharray="4,3" marker-end="url(#arrow)"/><path d="M 360,392 L 360,456" fill="none" stroke="#4f5d75" stroke-width="1.2" marker-end="url(#arrow)"/><path d="M 216,488 L 272,488" fill="none" stroke="#4f5d75" stroke-width="1.2" marker-end="url(#arrow)"/><path d="M 444,344 L 500,344" fill="none" stroke="#4f5d75" stroke-width="1.2" marker-end="url(#arrow)"/><path d="M 504,372 L 448,372" fill="none" stroke="#4f5d75" stroke-width="1" stroke-dasharray="4,3" marker-end="url(#arrow)"/><path d="M 444,488 L 500,488" fill="none" stroke="#4f5d75" stroke-width="1.2" marker-end="url(#arrow)"/><rect x="368" y="152" width="32" height="12" rx="2" fill="#f5f5f5"/><text x="384" y="161" fill="#2e5aa8" font-size="8" font-family="'Geist Mono', 'Malgun Gothic', ui-monospace, monospace" text-anchor="middle" letter-spacing="0.06em">HTTPS</text><rect x="368" y="282" width="52" height="12" rx="2" fill="#f5f5f5"/><text x="394" y="291" fill="#4f5d75" font-size="8" font-family="'Geist Mono', 'Malgun Gothic', ui-monospace, monospace" text-anchor="middle" letter-spacing="0.06em">실시간·조회</text><rect x="226" y="324" width="44" height="12" rx="2" fill="#f5f5f5"/><text x="248" y="333" fill="#4f5d75" font-size="8" font-family="'Geist Mono', 'Malgun Gothic', ui-monospace, monospace" text-anchor="middle" letter-spacing="0.06em">기록 추가</text><rect x="236" y="380" width="24" height="12" rx="2" fill="#f5f5f5"/><text x="248" y="389" fill="#4f5d75" font-size="8" font-family="'Geist Mono', 'Malgun Gothic', ui-monospace, monospace" text-anchor="middle" letter-spacing="0.06em">복원</text><rect x="368" y="410" width="24" height="12" rx="2" fill="#f5f5f5"/><text x="380" y="419" fill="#4f5d75" font-size="8" font-family="'Geist Mono', 'Malgun Gothic', ui-monospace, monospace" text-anchor="middle" letter-spacing="0.06em">판정</text><rect x="224" y="468" width="40" height="12" rx="2" fill="#f5f5f5"/><text x="244" y="477" fill="#4f5d75" font-size="8" font-family="'Geist Mono', 'Malgun Gothic', ui-monospace, monospace" text-anchor="middle" letter-spacing="0.06em">불러오기</text><rect x="460" y="324" width="24" height="12" rx="2" fill="#f5f5f5"/><text x="472" y="333" fill="#4f5d75" font-size="8" font-family="'Geist Mono', 'Malgun Gothic', ui-monospace, monospace" text-anchor="middle" letter-spacing="0.06em">음성</text><rect x="454" y="380" width="44" height="12" rx="2" fill="#f5f5f5"/><text x="476" y="389" fill="#4f5d75" font-size="8" font-family="'Geist Mono', 'Malgun Gothic', ui-monospace, monospace" text-anchor="middle" letter-spacing="0.06em">문장·화자</text><rect x="456" y="468" width="32" height="12" rx="2" fill="#f5f5f5"/><text x="472" y="477" fill="#4f5d75" font-size="8" font-family="'Geist Mono', 'Malgun Gothic', ui-monospace, monospace" text-anchor="middle" letter-spacing="0.06em">재판정</text><rect x="276" y="72" width="168" height="64" rx="6" fill="#f5f5f5"/><rect x="276" y="72" width="168" height="64" rx="6" fill="rgba(79,93,117,0.10)" stroke="#7a8399" stroke-width="1"/><rect x="284" y="78" width="20" height="12" rx="2" fill="transparent" stroke="rgba(122,131,153,0.40)" stroke-width="0.8"/><text x="294" y="87" fill="#7a8399" font-size="7" font-family="'Geist Mono', 'Malgun Gothic', ui-monospace, monospace" text-anchor="middle" letter-spacing="0.08em">USER</text><text x="360" y="106" fill="#2d3142" font-size="12" font-weight="600" font-family="'Geist', 'Malgun Gothic', system-ui, sans-serif" text-anchor="middle">상담원 브라우저</text><text x="360" y="122" fill="#4f5d75" font-size="9" font-family="'Geist Mono', 'Malgun Gothic', ui-monospace, monospace" text-anchor="middle">음성 · 질문 · 조치</text><rect x="276" y="200" width="168" height="64" rx="6" fill="#f5f5f5"/><rect x="276" y="200" width="168" height="64" rx="6" fill="#ffffff" stroke="#2d3142" stroke-width="1"/><rect x="284" y="206" width="16" height="12" rx="2" fill="transparent" stroke="rgba(45,49,66,0.40)" stroke-width="0.8"/><text x="292" y="215" fill="#2d3142" font-size="7" font-family="'Geist Mono', 'Malgun Gothic', ui-monospace, monospace" text-anchor="middle" letter-spacing="0.08em">WEB</text><text x="360" y="234" fill="#2d3142" font-size="12" font-weight="600" font-family="'Geist', 'Malgun Gothic', system-ui, sans-serif" text-anchor="middle">프론트엔드</text><text x="360" y="250" fill="#4f5d75" font-size="9" font-family="'Geist Mono', 'Malgun Gothic', ui-monospace, monospace" text-anchor="middle">상담 화면 · 근거 뷰어</text><rect x="48" y="328" width="168" height="64" rx="6" fill="#f5f5f5"/><rect x="48" y="328" width="168" height="64" rx="6" fill="rgba(45,49,66,0.05)" stroke="#4f5d75" stroke-width="1"/><rect x="56" y="334" width="12" height="12" rx="2" fill="transparent" stroke="rgba(79,93,117,0.50)" stroke-width="0.8"/><text x="62" y="343" fill="#4f5d75" font-size="7" font-family="'Geist Mono', 'Malgun Gothic', ui-monospace, monospace" text-anchor="middle" letter-spacing="0.08em">DB</text><text x="132" y="362" fill="#2d3142" font-size="12" font-weight="600" font-family="'Geist', 'Malgun Gothic', system-ui, sans-serif" text-anchor="middle">상담 기록</text><text x="132" y="378" fill="#4f5d75" font-size="9" font-family="'Geist Mono', 'Malgun Gothic', ui-monospace, monospace" text-anchor="middle">덧붙이기 전용</text><rect x="276" y="328" width="168" height="64" rx="6" fill="#f5f5f5"/><rect x="276" y="328" width="168" height="64" rx="6" fill="rgba(235,108,54,0.08)" stroke="#eb6c36" stroke-width="1"/><rect x="284" y="334" width="16" height="12" rx="2" fill="transparent" stroke="rgba(235,108,54,0.50)" stroke-width="0.8"/><text x="292" y="343" fill="#eb6c36" font-size="7" font-family="'Geist Mono', 'Malgun Gothic', ui-monospace, monospace" text-anchor="middle" letter-spacing="0.08em">API</text><text x="360" y="362" fill="#2d3142" font-size="12" font-weight="600" font-family="'Geist', 'Malgun Gothic', system-ui, sans-serif" text-anchor="middle">게이트웨이</text><text x="360" y="378" fill="#4f5d75" font-size="9" font-family="'Geist Mono', 'Malgun Gothic', ui-monospace, monospace" text-anchor="middle">WebSocket + REST</text><rect x="504" y="328" width="168" height="64" rx="6" fill="#f5f5f5"/><rect x="504" y="328" width="168" height="64" rx="6" fill="rgba(45,49,66,0.03)" stroke="rgba(45,49,66,0.30)" stroke-width="1"/><rect x="512" y="334" width="16" height="12" rx="2" fill="transparent" stroke="rgba(45,49,66,0.22)" stroke-width="0.8"/><text x="520" y="343" fill="#7a8399" font-size="7" font-family="'Geist Mono', 'Malgun Gothic', ui-monospace, monospace" text-anchor="middle" letter-spacing="0.08em">STT</text><text x="588" y="362" fill="#2d3142" font-size="12" font-weight="600" font-family="'Geist', 'Malgun Gothic', system-ui, sans-serif" text-anchor="middle">음성 인식·화자 분리</text><text x="588" y="378" fill="#4f5d75" font-size="9" font-family="'Geist Mono', 'Malgun Gothic', ui-monospace, monospace" text-anchor="middle">발화 · 화자 구간</text><rect x="48" y="456" width="168" height="64" rx="6" fill="#f5f5f5"/><rect x="48" y="456" width="168" height="64" rx="6" fill="rgba(45,49,66,0.05)" stroke="#4f5d75" stroke-width="1"/><rect x="56" y="462" width="20" height="12" rx="2" fill="transparent" stroke="rgba(79,93,117,0.50)" stroke-width="0.8"/><text x="66" y="471" fill="#4f5d75" font-size="7" font-family="'Geist Mono', 'Malgun Gothic', ui-monospace, monospace" text-anchor="middle" letter-spacing="0.08em">PACK</text><text x="132" y="490" fill="#2d3142" font-size="12" font-weight="600" font-family="'Geist', 'Malgun Gothic', system-ui, sans-serif" text-anchor="middle">승인된 규정팩</text><text x="132" y="506" fill="#4f5d75" font-size="9" font-family="'Geist Mono', 'Malgun Gothic', ui-monospace, monospace" text-anchor="middle">버전 고정 파일</text><rect x="276" y="456" width="168" height="64" rx="6" fill="#f5f5f5"/><rect x="276" y="456" width="168" height="64" rx="6" fill="#ffffff" stroke="#2d3142" stroke-width="1"/><rect x="284" y="462" width="32" height="12" rx="2" fill="transparent" stroke="rgba(45,49,66,0.40)" stroke-width="0.8"/><text x="300" y="471" fill="#2d3142" font-size="7" font-family="'Geist Mono', 'Malgun Gothic', ui-monospace, monospace" text-anchor="middle" letter-spacing="0.08em">ENGINE</text><text x="360" y="490" fill="#2d3142" font-size="12" font-weight="600" font-family="'Geist', 'Malgun Gothic', system-ui, sans-serif" text-anchor="middle">내장 엔진</text><text x="360" y="506" fill="#4f5d75" font-size="9" font-family="'Geist Mono', 'Malgun Gothic', ui-monospace, monospace" text-anchor="middle">규칙 · 검색 · 재판정</text><rect x="504" y="456" width="168" height="64" rx="6" fill="#f5f5f5"/><rect x="504" y="456" width="168" height="64" rx="6" fill="rgba(45,49,66,0.03)" stroke="rgba(45,49,66,0.30)" stroke-width="1"/><rect x="512" y="462" width="16" height="12" rx="2" fill="transparent" stroke="rgba(45,49,66,0.22)" stroke-width="0.8"/><text x="520" y="471" fill="#7a8399" font-size="7" font-family="'Geist Mono', 'Malgun Gothic', ui-monospace, monospace" text-anchor="middle" letter-spacing="0.08em">LLM</text><text x="588" y="490" fill="#2d3142" font-size="12" font-weight="600" font-family="'Geist', 'Malgun Gothic', system-ui, sans-serif" text-anchor="middle">언어 모델</text><text x="588" y="506" fill="#4f5d75" font-size="9" font-family="'Geist Mono', 'Malgun Gothic', ui-monospace, monospace" text-anchor="middle">재판정 · 역할 추정</text></g><line x1="40" y1="624" x2="680" y2="624" stroke="rgba(45,49,66,0.10)" stroke-width="0.8"/><text x="40" y="640" fill="#4f5d75" font-size="8" font-family="'Geist Mono', 'Malgun Gothic', ui-monospace, monospace" letter-spacing="0.18em">범례</text><rect x="40" y="656" width="14" height="10" rx="2" fill="rgba(235,108,54,0.08)" stroke="#eb6c36" stroke-width="1"/><text x="60" y="664" fill="#4f5d75" font-size="8.5" font-family="'Geist', 'Malgun Gothic', system-ui, sans-serif">게이트웨이</text><rect x="132" y="656" width="14" height="10" rx="2" fill="#ffffff" stroke="#2d3142" stroke-width="1"/><text x="152" y="664" fill="#4f5d75" font-size="8.5" font-family="'Geist', 'Malgun Gothic', system-ui, sans-serif">서버 구성요소</text><rect x="236" y="656" width="14" height="10" rx="2" fill="rgba(45,49,66,0.05)" stroke="#4f5d75" stroke-width="1"/><text x="256" y="664" fill="#4f5d75" font-size="8.5" font-family="'Geist', 'Malgun Gothic', system-ui, sans-serif">저장소</text><rect x="308" y="656" width="14" height="10" rx="2" fill="rgba(45,49,66,0.03)" stroke="rgba(45,49,66,0.30)" stroke-width="1"/><text x="328" y="664" fill="#4f5d75" font-size="8.5" font-family="'Geist', 'Malgun Gothic', system-ui, sans-serif">외부 추론</text><line x1="396" y1="661" x2="424" y2="661" stroke="#2e5aa8" stroke-width="1.2" marker-end="url(#arrow-link)"/><text x="432" y="664" fill="#4f5d75" font-size="8.5" font-family="'Geist', 'Malgun Gothic', system-ui, sans-serif">브라우저 접속</text><line x1="516" y1="661" x2="544" y2="661" stroke="#4f5d75" stroke-width="1.2" marker-end="url(#arrow)"/><text x="552" y="664" fill="#4f5d75" font-size="8.5" font-family="'Geist', 'Malgun Gothic', system-ui, sans-serif">주요 흐름</text><line x1="40" y1="683" x2="68" y2="683" stroke="#4f5d75" stroke-width="1.2" stroke-dasharray="4,3" marker-end="url(#arrow)"/><text x="76" y="686" fill="#4f5d75" font-size="8.5" font-family="'Geist', 'Malgun Gothic', system-ui, sans-serif">반환 · 복구</text></svg>
